<svg width="420" height="420" viewBox="0 0 420 420" fill="none" xmlns="http://www.w3.org/2000/svg">
<path d="M140.48 338.183C140.48 339.92 138.532 341.31 136.077 341.31C133.282 341.57 131.335 340.181 131.335 338.183C131.335 336.446 133.282 335.057 135.738 335.057C138.278 334.796 140.48 336.186 140.48 338.183ZM114.145 334.275C113.552 336.012 115.246 338.01 117.786 338.531C119.988 339.399 122.528 338.531 123.036 336.794C123.544 335.057 121.935 333.059 119.395 332.278C117.194 331.67 114.738 332.538 114.145 334.275ZM151.573 332.799C149.117 333.407 147.423 335.057 147.677 337.054C147.931 338.791 150.133 339.92 152.673 339.312C155.129 338.704 156.823 337.054 156.569 335.317C156.315 333.667 154.028 332.538 151.573 332.799ZM207.29 0C89.8427 0 0 91.4502 0 211.907C0 308.221 59.1048 390.639 143.528 419.646C154.367 421.644 158.177 414.783 158.177 409.138C158.177 403.753 157.923 374.051 157.923 355.813C157.923 355.813 98.6492 368.84 86.2016 329.933C86.2016 329.933 76.5484 304.66 62.6613 298.147C62.6613 298.147 43.2702 284.512 64.0161 284.772C64.0161 284.772 85.1008 286.509 96.7016 307.179C115.246 340.702 146.323 331.062 158.431 325.33C160.379 311.434 165.883 301.794 171.98 296.062C124.645 290.678 76.8871 283.643 76.8871 200.096C76.8871 176.213 83.3226 164.228 96.871 148.943C94.6694 143.298 87.4718 120.023 99.0726 89.9738C116.77 84.3287 157.5 113.423 157.5 113.423C174.435 108.559 192.641 106.041 210.677 106.041C228.714 106.041 246.919 108.559 263.855 113.423C263.855 113.423 304.585 84.2419 322.282 89.9738C333.883 120.11 326.686 143.298 324.484 148.943C338.032 164.315 346.331 176.3 346.331 200.096C346.331 283.904 296.456 290.591 249.121 296.062C256.911 302.923 263.516 315.95 263.516 336.36C263.516 365.627 263.262 401.842 263.262 408.964C263.262 414.609 267.157 421.47 277.911 419.472C362.589 390.639 420 308.221 420 211.907C420 91.4502 324.738 0 207.29 0ZM82.3065 299.536C81.2056 300.405 81.4597 302.402 82.8992 304.052C84.254 305.442 86.2016 306.05 87.3024 304.921C88.4032 304.052 88.1492 302.055 86.7097 300.405C85.3548 299.015 83.4073 298.407 82.3065 299.536ZM73.1613 292.502C72.5686 293.631 73.4153 295.02 75.1089 295.889C76.4637 296.757 78.1573 296.497 78.75 295.281C79.3427 294.152 78.496 292.762 76.8024 291.894C75.1089 291.373 73.754 291.633 73.1613 292.502ZM100.597 323.419C99.2419 324.548 99.75 327.154 101.698 328.804C103.645 330.801 106.101 331.062 107.202 329.672C108.302 328.543 107.794 325.938 106.101 324.288C104.238 322.29 101.698 322.03 100.597 323.419ZM90.9436 310.653C89.5887 311.521 89.5887 313.779 90.9436 315.777C92.2984 317.774 94.5847 318.643 95.6855 317.774C97.0403 316.645 97.0403 314.387 95.6855 312.39C94.5 310.392 92.2984 309.524 90.9436 310.653Z" fill="white"/>
</svg>
