<svg width="420" height="420" viewBox="0 0 420 420" fill="none" xmlns="http://www.w3.org/2000/svg">
<path d="M122.473 0C54.9451 0 0 54.9775 0 122.522V297.511C0 365.047 54.9775 420 122.522 420H297.511C365.047 420 420 365.022 420 297.478V122.473C420 54.9451 365.022 0 297.478 0H122.473ZM336 67.2C345.274 67.2 352.8 74.7264 352.8 84C352.8 93.2736 345.274 100.8 336 100.8C326.726 100.8 319.2 93.2736 319.2 84C319.2 74.7264 326.726 67.2 336 67.2ZM210 100.8C270.228 100.8 319.2 149.772 319.2 210C319.2 270.228 270.22 319.2 210 319.2C149.772 319.2 100.8 270.22 100.8 210C100.8 149.78 149.772 100.8 210 100.8ZM210 134.4C168.244 134.4 134.4 168.244 134.4 210C134.4 251.756 168.244 285.6 210 285.6C251.756 285.6 285.6 251.756 285.6 210C285.6 168.244 251.756 134.4 210 134.4Z" fill="white"/>
</svg>
