<svg width="75" height="98" viewBox="0 0 75 98" fill="none" xmlns="http://www.w3.org/2000/svg">
<path d="M0.875 85.25L12.5 66.375C15.5417 68.75 18.375 70.688 21 72.188C23.6667 73.688 26.25 74.792 28.75 75.5C31.2917 76.167 33.875 76.5 36.5 76.5C39.0833 76.5 41.2917 76.208 43.125 75.625C44.9583 75 46.3542 74.125 47.3125 73C48.3125 71.833 48.8125 70.458 48.8125 68.875C48.8125 66.875 48.1042 65.167 46.6875 63.75C45.2708 62.3333 43.375 61.0625 41 59.9375C38.6667 58.8125 36.1042 57.6875 33.3125 56.5625C30.3125 55.3542 27.25 54.0208 24.125 52.5625C21 51.0625 18.125 49.25 15.5 47.125C12.875 45 10.75 42.4167 9.125 39.375C7.5 36.2917 6.6875 32.5417 6.6875 28.125C6.6875 22.2917 8.1458 17.3125 11.0625 13.1875C14.0208 9.0208 18.0417 5.8542 23.125 3.6875C28.25 1.4792 34.0417 0.375 40.5 0.375C45.2083 0.375 50.1875 1 55.438 2.25C60.688 3.5 66 5.4583 71.375 8.125L61.75 28C58.75 26.1667 55.458 24.7083 51.875 23.625C48.3333 22.5 45.0833 21.9375 42.125 21.9375C40.0833 21.9375 38.2917 22.2083 36.75 22.75C35.25 23.2917 34.0833 24.0833 33.25 25.125C32.4167 26.125 32 27.3125 32 28.6875C32 30.5208 32.7083 32.1458 34.125 33.5625C35.5417 34.9375 37.4167 36.2083 39.75 37.375C42.0833 38.5417 44.625 39.7292 47.375 40.9375C50.375 42.2292 53.438 43.6667 56.562 45.25C59.729 46.8333 62.625 48.7083 65.25 50.875C67.917 53.0417 70.062 55.6458 71.688 58.6875C73.312 61.6875 74.125 65.292 74.125 69.5C74.125 75.125 72.583 80.083 69.5 84.375C66.458 88.625 62.188 91.938 56.688 94.312C51.2292 96.688 44.875 97.875 37.625 97.875C30.875 97.875 24.375 96.792 18.125 94.625C11.875 92.458 6.125 89.333 0.875 85.25Z" fill="white"/>
</svg>
